<svg xmlns="http://www.w3.org/2000/svg" xmlns:xlink="http://www.w3.org/1999/xlink" width="2489" height="572"><path fill="white" transform="matrix(0.607666 0 0 0.607864 0 -3.05176e-05)" d="M1384.67 590.948L1384.67 526.517L1641.06 526.517L1641.06 590.948L1384.67 590.948ZM1285.04 691.912L1473.01 261.487L1554.04 261.487L1743.35 691.912L1661.65 691.912L1496.92 303.334L1530.13 303.334L1366.07 691.912L1285.04 691.912ZM1992.59 699.883C1955.84 699.883 1922.63 695.011 1892.96 685.269C1863.29 675.527 1837.83 661.357 1816.58 642.758Q1812.64 639.131 1808.91 635.294Q1805.17 631.458 1801.66 627.422Q1798.14 623.387 1794.85 619.166Q1791.56 614.944 1788.5 610.549Q1785.45 606.154 1782.64 601.598Q1779.82 597.043 1777.27 592.34Q1774.71 587.638 1772.41 582.802Q1770.12 577.967 1768.09 573.014C1757.02 545.559 1751.48 514.561 1751.48 480.021C1751.48 445.038 1757.46 413.597 1769.42 385.699Q1770.49 383.156 1771.63 380.644Q1772.77 378.132 1773.99 375.654Q1775.2 373.175 1776.48 370.731Q1777.77 368.287 1779.12 365.881Q1780.47 363.474 1781.88 361.106Q1783.3 358.738 1784.79 356.411Q1786.27 354.084 1787.82 351.8Q1789.37 349.516 1790.98 347.275Q1792.59 345.035 1794.26 342.842Q1795.94 340.648 1797.67 338.502Q1799.41 336.356 1801.2 334.26Q1803 332.163 1804.85 330.118Q1806.7 328.073 1808.61 326.081Q1810.52 324.089 1812.49 322.151Q1814.45 320.214 1816.47 318.332Q1818.49 316.45 1820.56 314.626C1842.7 294.699 1869.05 279.643 1899.6 269.458C1930.16 258.83 1963.81 253.516 2000.56 253.516C2043.52 253.516 2080.71 260.159 2112.15 273.444C2143.59 286.728 2168.61 305.327 2187.21 329.239C2205.81 352.709 2216.43 380.607 2219.09 412.933L2149.35 412.933Q2148.34 409.489 2147.12 406.113Q2145.91 402.736 2144.49 399.439Q2143.07 396.141 2141.46 392.935Q2139.85 389.729 2138.04 386.627Q2136.24 383.524 2134.26 380.535Q2132.27 377.546 2130.11 374.682Q2127.94 371.819 2125.61 369.09Q2123.28 366.362 2120.79 363.78C2107.95 350.052 2091.34 339.424 2070.97 331.896C2051.04 323.925 2027.58 319.94 2000.56 319.94C1965.14 319.94 1934.36 326.804 1908.24 340.531Q1905.92 341.696 1903.65 342.947Q1901.38 344.197 1899.16 345.53Q1896.93 346.864 1894.76 348.278Q1892.59 349.693 1890.47 351.188Q1888.35 352.682 1886.29 354.254Q1884.23 355.825 1882.22 357.472Q1880.22 359.119 1878.28 360.839Q1876.34 362.559 1874.47 364.35Q1872.59 366.141 1870.79 367.999Q1868.98 369.858 1867.24 371.783Q1865.5 373.707 1863.84 375.695Q1862.17 377.682 1860.58 379.73Q1858.99 381.778 1857.48 383.883Q1855.97 385.989 1854.53 388.148Q1853.1 390.308 1851.75 392.52Q1850.39 394.731 1849.12 396.991C1835.4 420.904 1828.53 448.58 1828.53 480.021C1828.53 511.461 1834.51 538.695 1846.47 561.722C1858.86 584.306 1877.46 602.019 1902.26 614.86C1927.06 627.26 1957.83 633.459 1994.59 633.459C2022.93 633.459 2047.72 629.252 2068.98 620.839C2090.68 611.982 2108.61 599.805 2122.78 584.306Q2125.41 581.445 2127.86 578.435Q2130.31 575.425 2132.59 572.275Q2134.86 569.125 2136.94 565.847Q2139.02 562.569 2140.91 559.174Q2142.8 555.779 2144.48 552.279Q2146.16 548.779 2147.64 545.185Q2149.11 541.592 2150.37 537.918Q2151.63 534.244 2152.67 530.503L2186.54 522.532C2180.35 579.656 2159.98 623.496 2125.44 654.05C2091.34 684.605 2047.06 699.883 1992.59 699.883L1992.59 699.883ZM2168.61 691.912C2168.61 677.741 2169.27 661.8 2170.6 644.087C2171.93 625.931 2173.48 607.554 2175.25 588.955L2181.23 537.809L2003.22 537.809L2003.22 483.342L2235.7 483.342L2235.7 691.912L2168.61 691.912ZM2384.31 508.583L2384.31 626.817L2686.53 626.817L2686.53 691.912L2308.59 691.912L2308.59 261.487L2685.87 261.487L2685.87 326.582L2384.31 326.582L2384.31 446.145L2631.4 446.145L2631.4 508.583L2384.31 508.583L2384.31 508.583ZM3156.16 613.532L3133.58 622.167L3133.58 261.487L3208.63 261.487L3208.63 691.912L3133.58 691.912L2810.77 341.86L2834.02 333.225L2834.02 691.912L2758.3 691.912L2758.3 261.487L2834.02 261.487L3156.16 613.532L3156.16 613.532ZM3281.7 261.487L3702.81 261.487L3702.81 326.582L3350.78 649.401L3342.14 626.817L3702.81 626.817L3702.81 691.912L3281.7 691.912L3281.7 626.817L3634.4 303.998L3642.37 326.582L3281.7 326.582L3281.7 261.487L3281.7 261.487ZM3788.36 261.487L3864.08 261.487L3864.08 691.912L3788.36 691.912L3788.36 261.487Z"></path><path fill="#D2F65A" transform="matrix(0.607666 0 0 0.607864 0 -3.05176e-05)" d="M4037.85 620.174L4037.85 691.912L3949.51 691.912L3949.51 620.174L4037.85 620.174ZM277.393 0.166059C429.776 0.166059 582.103 0.442823 734.485 0C787.456 -0.166059 832.208 15.914 867.605 55.5743C886.48 76.7192 908.399 95.3178 927.052 116.684C964.691 159.693 963.529 197.804 923.122 238.35C867.688 293.979 811.257 348.779 755.242 403.855C697.566 460.509 697.316 478.997 754.218 535.318C857.974 637.943 961.924 740.373 1065.43 843.219C1078.58 856.31 1090.89 870.785 1100.66 886.339C1113.25 906.377 1106.83 924.256 1084.22 932.835Q1079.18 934.667 1074 936.051Q1068.82 937.435 1063.54 938.36Q1058.26 939.286 1052.92 939.746Q1047.57 940.206 1042.21 940.197C905.769 940.834 769.328 940.529 632.887 941C590.405 941.111 554.371 927.909 524.841 897.769C503.42 875.822 481.031 854.815 459.527 832.923C413.17 785.873 413.032 742.836 460.108 695.593C515.459 639.88 571.807 585.053 627.407 529.589C676.947 480.159 676.393 458.544 626.3 409.279C508.762 293.979 391.417 178.458 273.851 63.2129C267.541 57.0134 260.373 51.0353 252.457 47.1606C233.444 37.6675 217.641 44.9464 213.352 65.6208C210.999 77.0511 211.138 89.1181 211.138 100.881C210.75 346.177 210.639 591.529 210.307 836.826C210.307 853.791 210.473 871.006 207.65 887.667C201.977 920.879 184.015 936.821 149.31 938.979C120.638 940.834 91.7724 940.419 62.962 940.474C-18.1277 940.529 168.905 940.419 87.7871 940.142C76.4124 940.142 64.9824 939.671 53.746 938.343C24.5759 934.8 8.24724 920.741 2.8228 892.76C0.193614 879.115 0.138263 864.862 0.138263 850.913C-0.0553514 597.452 0 343.991 0 90.5574C0 13.9489 13.7825 0.553529 93.018 0.525853C243.878 0.415147 126.589 0.525853 277.449 0.525853L277.449 0.276765L277.393 0.166059L277.393 0.166059Z"></path></svg>